<svg width="80" height="80" viewBox="0 0 80 80" fill="none" xmlns="http://www.w3.org/2000/svg">
<path fill-rule="evenodd" clip-rule="evenodd" d="M59.9918 27.631V61.9887C59.9918 64.2661 58.1395 66.1119 55.8555 66.1119H24.1441C21.8593 66.1119 20.0078 64.2661 20.0078 61.9887V18.0112C20.0078 15.7337 21.8593 13.8879 24.1441 13.8879H46.2039L59.9918 27.631Z" fill="#E2E8FF"/>
<path fill-rule="evenodd" clip-rule="evenodd" d="M50.1158 44.9105C49.884 44.7995 49.5854 44.7448 49.2198 44.7448C48.5686 44.7448 48.1043 44.9439 47.8277 45.3421C47.5511 45.7411 47.4132 46.3589 47.4132 47.1953C47.4132 48.0316 47.5552 48.6428 47.8391 49.0296C48.1231 49.4156 48.6078 49.609 49.2941 49.609C49.5903 49.609 49.862 49.5674 50.1084 49.4833C50.3557 49.4001 50.5899 49.2148 50.8118 48.9301L52.2561 49.9411C51.9599 50.3793 51.5699 50.7114 51.086 50.9374C50.6021 51.1635 49.9901 51.2769 49.25 51.2769C47.9958 51.2769 47.0476 50.9366 46.4062 50.2544C45.764 49.5731 45.4434 48.5629 45.4434 47.2246C45.4434 45.9207 45.7543 44.9047 46.376 44.176C46.9987 43.4482 47.9313 43.0834 49.1757 43.0834C49.8424 43.0834 50.4356 43.192 50.9563 43.4082C51.4777 43.6253 51.8734 43.9598 52.1452 44.4119L50.7237 45.4237C50.5507 45.192 50.3483 45.0214 50.1158 44.9105ZM40.3629 51.2769C37.875 51.2769 36.6306 49.9166 36.6306 47.1953C36.6306 45.8864 36.9292 44.8737 37.5265 44.1573C38.1238 43.4417 39.0696 43.0834 40.3629 43.0834C41.6465 43.0834 42.5874 43.4417 43.1847 44.1573C43.782 44.8737 44.0806 45.8864 44.0806 47.1953C44.0806 48.4845 43.782 49.4874 43.1847 50.203C42.5874 50.9195 41.6465 51.2769 40.3629 51.2769ZM41.7036 45.3315C41.4368 44.9398 40.9904 44.7448 40.3629 44.7448C39.7411 44.7448 39.2915 44.9447 39.0157 45.3462C38.7391 45.7469 38.6004 46.3637 38.6004 47.1953C38.6004 48.0219 38.7375 48.6306 39.0116 49.0223C39.2858 49.4131 39.7363 49.609 40.3629 49.609C40.9798 49.609 41.4246 49.4156 41.6963 49.0296C41.9672 48.6428 42.1035 48.0316 42.1035 47.1953C42.1035 46.3442 41.9705 45.7224 41.7036 45.3315ZM33.1136 50.2952C32.7578 50.5955 32.3825 50.8346 31.9875 51.0117C31.5926 51.1888 31.143 51.2769 30.6395 51.2769C29.6619 51.2769 28.9145 50.9252 28.3963 50.2218C27.8773 49.5176 27.6187 48.5237 27.6187 47.2393C27.6187 45.9256 27.9034 44.9047 28.4738 44.176C29.0442 43.4482 29.8447 43.0834 30.8769 43.0834C31.2417 43.0834 31.6171 43.1585 32.0022 43.3086C32.3874 43.4588 32.7056 43.6497 32.9577 43.8807V40.0569H34.868V51.0484H33.1136V50.2952ZM32.9577 45.4531C32.7554 45.2711 32.5049 45.1096 32.2062 44.9692C31.9075 44.8297 31.6024 44.7595 31.2915 44.7595C30.7782 44.7595 30.3661 44.9798 30.0544 45.4196C29.7435 45.8603 29.5885 46.4568 29.5885 47.2099C29.5885 47.9533 29.715 48.5359 29.9695 48.9594C30.2241 49.3829 30.6175 49.5943 31.1511 49.5943C31.4669 49.5943 31.7884 49.5217 32.1173 49.3764C32.4453 49.2312 32.7252 49.0525 32.9577 48.8411V45.4531Z" fill="#0229B4"/>
<path fill-rule="evenodd" clip-rule="evenodd" d="M59.9998 26.8515V28.5619H48.7284C46.3947 28.5619 45.3184 26.6687 45.3184 24.3342V13.8779H47.0254L59.9998 26.8515Z" fill="#436DFF"/>
</svg>
